<?xml version="1.0" encoding="UTF-8" standalone="no"?>
<!DOCTYPE svg PUBLIC "-//W3C//DTD SVG 1.1//EN" "http://www.w3.org/Graphics/SVG/1.1/DTD/svg11.dtd">
<svg width="100%" height="100%" viewBox="0 0 3000 1500" version="1.1" xmlns="http://www.w3.org/2000/svg" xmlns:xlink="http://www.w3.org/1999/xlink" xml:space="preserve" xmlns:serif="http://www.serif.com/" style="fill-rule:evenodd;clip-rule:evenodd;stroke-linejoin:round;stroke-miterlimit:1.41421;">
    <g transform="matrix(1.07818,0,0,1.07818,-113.135,-134.831)">
        <g transform="matrix(1.12184,0,0,1.12184,-123.623,-34.31)">
            <g>
                <path d="M531.259,784.59C531.259,743.729 503.14,721.761 466.234,714.292C494.353,705.505 510.169,684.855 510.169,656.736C510.169,597.423 442.069,584.681 404.723,584.681L298.398,584.681C294.005,584.681 290.49,588.196 290.49,592.59C290.49,680.462 290.49,768.333 290.49,856.205C290.49,860.599 294.005,864.114 298.398,864.114C338.819,864.114 379.24,864.114 419.662,864.114C473.703,864.114 531.259,846.979 531.259,784.59ZM404.723,597.862C434.6,598.301 494.792,609.285 494.792,656.736C494.792,697.597 455.689,710.338 410.435,710.338L305.428,710.338L305.428,597.862L404.723,597.862ZM410.435,724.398L433.721,724.398C479.414,724.398 515.881,741.533 515.881,784.59C515.881,838.631 465.794,850.933 419.662,850.933C381.437,850.933 343.213,850.933 305.428,850.933L305.428,724.398L410.435,724.398Z" style="fill-rule:nonzero;"/>
                <path d="M732.046,584.681C732.046,580.727 728.531,577.212 724.577,577.212C719.744,577.212 716.668,580.727 716.668,584.681L716.668,860.599C716.668,864.553 719.744,868.068 724.577,868.068C728.531,868.068 732.046,864.553 732.046,860.599L732.046,584.681Z" style="fill-rule:nonzero;"/>
                <path d="M931.515,860.599C931.515,871.143 946.892,871.143 946.892,860.599L946.892,646.631C946.892,636.526 931.515,636.526 931.515,647.07L931.515,860.599ZM947.332,585.999C947.332,576.334 931.075,576.334 931.075,585.999L931.075,610.604C931.075,620.269 947.332,620.269 947.332,610.604L947.332,585.999Z" style="fill-rule:nonzero;"/>
                <path d="M1344.07,859.281C1344.07,864.114 1347.15,867.189 1351.98,867.189C1356.81,867.189 1359.45,864.114 1359.45,859.281L1359.45,733.624C1359.45,659.372 1292.67,624.663 1234.23,639.601C1202.6,647.949 1172.28,671.235 1162.18,708.141L1162.18,647.51C1162.18,642.677 1159.54,639.601 1154.71,639.601C1149.88,639.601 1146.8,643.116 1146.8,647.07L1146.8,859.281C1146.8,864.114 1149.88,867.189 1154.71,867.189C1159.54,867.189 1162.18,864.114 1162.18,859.281L1162.18,754.274C1163.5,708.141 1193.81,665.523 1239.07,654.1C1290.91,640.48 1344.07,676.507 1344.07,733.624L1344.07,859.281Z" style="fill-rule:nonzero;"/>
                <path d="M1658.22,867.189C1692.92,867.189 1724.12,853.569 1745.65,828.086C1764.98,804.8 1773.77,777.121 1772.01,744.169C1768.05,697.157 1738.62,654.1 1691.17,640.919C1669.2,635.208 1645.03,635.647 1624.82,640.919C1577.37,654.1 1548.38,697.157 1544.42,744.169C1542.66,777.121 1551.45,804.8 1570.78,828.086C1592.31,853.569 1623.51,867.189 1658.22,867.189ZM1686.33,655.858C1754.43,673.871 1779.04,764.819 1734.22,818.42C1716.21,839.949 1688.09,852.251 1658.22,852.251C1628.78,852.251 1601.1,839.949 1583.08,818.42C1538.27,764.819 1562,673.871 1630.1,655.858C1648.11,651.025 1668.76,651.464 1686.33,655.858Z" style="fill-rule:nonzero;"/>
            </g>
        </g>
        <g transform="matrix(0.996692,-0.0812723,0.0812723,0.996692,-59.4376,179.741)">
            <path d="M1653.67,476.845C1764.83,310.01 1954.67,200 2170,200C2512.19,200 2790,477.813 2790,820C2790,1162.19 2512.19,1440 2170,1440C1876.76,1440 1630.8,1235.98 1566.43,962.269C1632.14,1219.53 1865.97,1410 2144,1410C2472.94,1410 2740,1143.39 2740,815C2740,486.611 2472.94,220 2144,220C1940.84,220 1761.28,321.701 1653.67,476.845Z"/>
        </g>
    </g>
</svg>
