<?xml version="1.0" encoding="utf-8"?>
<!-- Generator: Adobe Illustrator 20.0.0, SVG Export Plug-In . SVG Version: 6.00 Build 0)  -->
<svg version="1.1" id="Layer_1" xmlns:serif="http://www.serif.com/"
	 xmlns="http://www.w3.org/2000/svg" xmlns:xlink="http://www.w3.org/1999/xlink" x="0px" y="0px" viewBox="0 0 960 560"
	 style="enable-background:new 0 0 960 560;" xml:space="preserve">
<style type="text/css">
	.st0{fill:#FFFFFF;stroke:#FFFFFF;stroke-miterlimit:10;}
</style>
<g transform="matrix(1.07818,0,0,1.07818,-113.135,-134.831)">
	<g transform="matrix(1.12184,0,0,1.12184,-123.623,-34.31)">
		<g>
			<path class="st0" d="M308.5,380.7c0-13.1-9-20.1-20.8-22.5c9-2.8,14.1-9.4,14.1-18.4c0-19-21.8-23.1-33.7-23.1h-34
				c-1.4,0-2.5,1.1-2.5,2.5c0,28.1,0,56.2,0,84.4c0,1.4,1.1,2.5,2.5,2.5c12.9,0,25.9,0,38.8,0C290.1,406.2,308.5,400.7,308.5,380.7z
				 M268,321c9.6,0.1,28.8,3.7,28.8,18.8c0,13.1-12.5,17.2-27,17.2h-33.6v-36H268z M269.9,361.5h7.5c14.6,0,26.3,5.5,26.3,19.3
				c0,17.3-16,21.2-30.8,21.2c-12.2,0-24.5,0-36.6,0v-40.5H269.9z"/>
			<path class="st0" d="M372.8,316.8c0-1.3-1.1-2.4-2.4-2.4c-1.5,0-2.5,1.1-2.5,2.4v88.3c0,1.3,1,2.4,2.5,2.4c1.3,0,2.4-1.1,2.4-2.4
				V316.8z"/>
			<path class="st0" d="M436.6,405.1c0,3.4,4.9,3.4,4.9,0v-68.5c0-3.2-4.9-3.2-4.9,0.1V405.1z M441.7,317.2c0-3.1-5.2-3.1-5.2,0v7.9
				c0,3.1,5.2,3.1,5.2,0V317.2z"/>
			<path class="st0" d="M568.6,404.6c0,1.5,1,2.5,2.5,2.5s2.4-1,2.4-2.5v-40.2c0-23.8-21.4-34.9-40.1-30.1
				c-10.1,2.7-19.8,10.1-23.1,21.9v-19.4c0-1.5-0.8-2.5-2.4-2.5c-1.5,0-2.5,1.1-2.5,2.4v67.9c0,1.5,1,2.5,2.5,2.5
				c1.5,0,2.4-1,2.4-2.5V371c0.4-14.8,10.1-28.4,24.6-32.1c16.6-4.4,33.6,7.2,33.6,25.4V404.6z"/>
			<path class="st0" d="M669.2,407.2c11.1,0,21.1-4.4,28-12.5c6.2-7.5,9-16.3,8.4-26.9c-1.3-15-10.7-28.8-25.9-33
				c-7-1.8-14.8-1.7-21.2,0c-15.2,4.2-24.5,18-25.7,33c-0.6,10.5,2.2,19.4,8.4,26.9C648.1,402.8,658.1,407.2,669.2,407.2z
				 M678.2,339.5c21.8,5.8,29.7,34.9,15.3,52c-5.8,6.9-14.8,10.8-24.3,10.8c-9.4,0-18.3-3.9-24-10.8c-14.3-17.2-6.7-46.3,15-52
				C665.9,338,672.5,338.1,678.2,339.5z"/>
		</g>
	</g>
	<g transform="matrix(0.996692,-0.0812723,0.0812723,0.996692,-59.4376,179.741)">
		<path class="st0" d="M640.6,161.6C676.2,108.2,736.9,73,805.8,73c109.5,0,198.4,88.9,198.4,198.4c0,109.5-88.9,198.4-198.4,198.4
			c-93.8,0-172.5-65.3-193.1-152.9c21,82.3,95.9,143.3,184.8,143.3c105.3,0,190.7-85.3,190.7-190.4c0-105.1-85.5-190.4-190.7-190.4
			C732.5,79.4,675,111.9,640.6,161.6z"/>
	</g>
</g>
</svg>
